<svg width="200" height="200" viewBox="0 0 200 200" fill="none" xmlns="http://www.w3.org/2000/svg">
<mask id="mask0_407_20" style="mask-type:alpha" maskUnits="userSpaceOnUse" x="0" y="0" width="200" height="200">
<circle cx="100" cy="100" r="100" fill="#D9D9D9"/>
</mask>
<g mask="url(#mask0_407_20)">
<circle cx="100" cy="100" r="100" fill="white"/>
<path d="M55.5555 141.667H77.7778V158.889C77.7778 161.65 75.5392 163.889 72.7778 163.889H60.5555C57.7941 163.889 55.5555 161.65 55.5555 158.889V141.667Z" fill="#06B795"/>
<path d="M119.444 141.667H141.667V158.889C141.667 161.65 139.428 163.889 136.667 163.889H124.444C121.683 163.889 119.444 161.65 119.444 158.889V141.667Z" fill="#02B0AC"/>
<rect x="47.2222" y="100" width="100" height="11.1111" rx="5.55556" fill="url(#paint0_linear_407_20)"/>
<path fill-rule="evenodd" clip-rule="evenodd" d="M44.4444 65.9722C44.4444 47.8145 59.5017 33.3333 77.7778 33.3333H116.667C134.943 33.3333 150 47.8145 150 65.9722V117.431C150 120.499 147.513 122.986 144.444 122.986C141.376 122.986 138.889 120.499 138.889 117.431V65.9722C138.889 54.2145 129.073 44.4444 116.667 44.4444H77.7778C65.3713 44.4444 55.5555 54.2145 55.5555 65.9722V120.139C55.5555 131.897 65.3713 141.667 77.7777 141.667H190.278C193.346 141.667 195.833 144.154 195.833 147.222C195.833 150.29 193.346 152.778 190.278 152.778H77.7777C59.5017 152.778 44.4444 138.297 44.4444 120.139V65.9722Z" fill="url(#paint1_linear_407_20)"/>
<path d="M36.1111 69.4444C36.1111 63.3079 41.0857 58.3333 47.2222 58.3333V94.4444C41.0857 94.4444 36.1111 89.4698 36.1111 83.3333V69.4444Z" fill="url(#paint2_linear_407_20)"/>
<path d="M158.333 69.4444C158.333 63.3079 153.359 58.3333 147.222 58.3333V94.4444C153.359 94.4444 158.333 89.4698 158.333 83.3333V69.4444Z" fill="url(#paint3_linear_407_20)"/>
<rect width="69.4444" height="13.8889" transform="translate(63.8889 116.667)" fill="url(#paint4_linear_407_20)"/>
<circle cx="88.1111" cy="123.611" r="2" fill="#07B893"/>
<rect x="93.1111" y="121.111" width="11" height="5" rx="2.5" fill="#05B49F"/>
<circle cx="109.111" cy="123.611" r="2" fill="#02B0AC"/>
</g>
<defs>
<linearGradient id="paint0_linear_407_20" x1="54.1667" y1="105.556" x2="144.444" y2="105.556" gradientUnits="userSpaceOnUse">
<stop/>
<stop offset="0.0001" stop-color="#0BBD7E"/>
<stop offset="1" stop-color="#0F8A5E"/>
</linearGradient>
<linearGradient id="paint1_linear_407_20" x1="72.2222" y1="45.8333" x2="159.722" y2="147.222" gradientUnits="userSpaceOnUse">
<stop stop-color="#0EC26C"/>
<stop offset="1" stop-color="#00ADB5"/>
</linearGradient>
<linearGradient id="paint2_linear_407_20" x1="72.2222" y1="45.8333" x2="159.722" y2="147.222" gradientUnits="userSpaceOnUse">
<stop stop-color="#0EC26C"/>
<stop offset="1" stop-color="#00ADB5"/>
</linearGradient>
<linearGradient id="paint3_linear_407_20" x1="72.2222" y1="45.8333" x2="159.722" y2="147.222" gradientUnits="userSpaceOnUse">
<stop stop-color="#0EC26C"/>
<stop offset="1" stop-color="#00ADB5"/>
</linearGradient>
<linearGradient id="paint4_linear_407_20" x1="2.77778" y1="6.94445" x2="70.8333" y2="12.5" gradientUnits="userSpaceOnUse">
<stop stop-color="white"/>
<stop offset="1" stop-color="white" stop-opacity="0"/>
</linearGradient>
</defs>
</svg>
